<?xml version="1.0" standalone="no"?>
<!DOCTYPE svg PUBLIC "-//W3C//DTD SVG 20010904//EN"
 "http://www.w3.org/TR/2001/REC-SVG-20010904/DTD/svg10.dtd">
<svg version="1.0" xmlns="http://www.w3.org/2000/svg"
 width="512.000000pt" height="512.000000pt" viewBox="0 0 512.000000 512.000000"
 preserveAspectRatio="xMidYMid meet">

<g transform="translate(0.000000,512.000000) scale(0.100000,-0.100000)"
fill="red" stroke="none">
<path d="M1975 5108 c-2 -7 -11 -97 -21 -200 l-17 -187 -111 -38 c-61 -21
-167 -65 -237 -99 l-126 -61 -146 118 c-80 66 -150 119 -154 119 -4 0 -190
-182 -412 -404 -289 -289 -401 -408 -395 -417 4 -8 55 -72 114 -144 59 -71
109 -135 113 -141 4 -7 -20 -67 -52 -135 -33 -68 -77 -173 -97 -234 -21 -60
-38 -111 -38 -112 -1 0 -73 -8 -161 -17 -88 -9 -177 -19 -198 -22 l-37 -6 2
-576 3 -577 165 -17 c91 -9 179 -17 196 -17 31 -1 32 -3 70 -113 21 -62 66
-169 100 -239 l61 -126 -118 -146 c-66 -80 -119 -150 -119 -154 0 -4 182 -190
404 -412 289 -289 408 -401 417 -395 8 4 73 55 144 114 72 59 135 109 141 113
7 4 67 -20 135 -52 68 -33 174 -77 235 -97 l111 -38 17 -166 c9 -91 20 -180
23 -197 l5 -33 359 0 359 0 0 305 0 305 318 0 317 0 30 -57 c86 -166 281 -265
461 -235 196 32 344 180 376 376 39 238 -131 467 -376 508 -180 30 -375 -69
-461 -235 l-30 -57 -317 0 -318 0 0 149 0 148 -172 6 c-180 6 -253 18 -398 64
-392 126 -724 455 -858 848 -54 159 -67 242 -67 435 0 193 13 275 67 435 130
387 457 714 844 843 148 50 227 63 412 69 l172 6 0 148 0 149 318 0 317 0 30
-57 c86 -166 281 -265 461 -235 245 41 415 270 376 508 -32 196 -180 344 -376
376 -180 30 -375 -69 -461 -235 l-30 -57 -317 0 -318 0 0 305 0 305 -365 0
c-284 0 -367 -3 -370 -12z m1922 -526 c151 -78 178 -292 51 -411 -86 -80 -250
-80 -336 0 -144 135 -91 368 98 430 42 14 142 3 187 -19z m-10 -3600 c116 -60
167 -215 108 -332 -46 -91 -124 -140 -225 -140 -219 0 -329 248 -185 418 27
32 66 57 115 73 42 14 142 3 187 -19z"/>
<path d="M4563 4195 c-166 -45 -284 -164 -328 -332 -9 -32 -14 -80 -13 -108
l3 -50 -240 -122 -240 -122 -725 -3 c-709 -4 -727 -5 -808 -26 -335 -89 -591
-346 -674 -679 -30 -120 -30 -322 0 -434 83 -310 316 -544 628 -631 78 -22 89
-22 829 -26 l750 -3 240 -122 240 -122 -3 -50 c-6 -106 48 -237 134 -322 98
-98 247 -147 380 -125 196 32 344 180 376 376 48 288 -215 553 -502 509 -74
-12 -175 -55 -225 -96 l-30 -25 -277 139 -278 139 -723 0 c-470 0 -744 4 -783
11 -32 6 -97 29 -144 51 -205 98 -340 312 -340 538 0 226 135 440 340 538 47
22 112 45 144 51 39 7 313 11 783 11 l723 0 278 139 277 139 30 -25 c17 -14
58 -38 92 -54 271 -131 585 35 635 335 51 307 -250 581 -549 501z m234 -213
c151 -78 178 -292 51 -411 -86 -80 -250 -80 -336 0 -144 135 -91 368 98 430
42 14 142 3 187 -19z m0 -2400 c151 -78 178 -292 51 -411 -86 -80 -250 -80
-336 0 -144 135 -91 368 98 430 42 14 142 3 187 -19z"/>
<path d="M4580 2999 c-120 -23 -247 -120 -305 -232 l-30 -57 -992 0 -993 0 0
-150 0 -150 993 0 992 0 30 -57 c86 -166 281 -265 461 -235 245 41 415 270
376 508 -42 255 -280 422 -532 373z m217 -217 c151 -78 178 -292 51 -411 -86
-80 -250 -80 -336 0 -144 135 -91 368 98 430 42 14 142 3 187 -19z"/>
</g>
</svg> 