<svg xmlns="http://www.w3.org/2000/svg" fill="#961911" preserveAspectRatio="xMidYMid meet" viewBox="0 0 5120 5120"><path d="M1975 12c-2 7-11 97-21 200l-17 187-111 38c-61 21-167 65-237 99l-126 61-146-118c-80-66-150-119-154-119s-190 182-412 404c-289 289-401 408-395 417 4 8 55 72 114 144 59 71 109 135 113 141 4 7-20 67-52 135-33 68-77 173-97 234l-38 112-161 17-198 22-37 6 2 576 3 577 165 17 196 17c31 1 32 3 70 113 21 62 66 169 100 239l61 126-118 146c-66 80-119 150-119 154s182 190 404 412c289 289 408 401 417 395 8-4 73-55 144-114l141-113c7-4 67 20 135 52 68 33 174 77 235 97l111 38 17 166c9 91 20 180 23 197l5 33H2710v-610h635l30 57a451 451 0 00 461 235 450 450 0 00 376-376 450 450 0 00-376-508c-180-30-375 69-461 235l-30 57H2710v-297l-172-6c-180-6-253-18-398-64a1376 1376 0 01-858-848c-54-159-67-242-67-435s13-275 67-435a1370 1370 0 01 844-843c148-50 227-63 412-69l172-6V910h635l30 57a451 451 0 00 461 235 450 450 0 00 376-508 450 450 0 00-376-376c-180-30-375 69-461 235l-30 57H2710V0h-365c-284 0-367 3-370 12zm1922 526c151 78 178 292 51 411-86 80-250 80-336 0a254 254 0 01 98-430c42-14 142-3 187 19zm-10 3600a255 255 0 01 108 332 240 240 0 01-225 140c-219 0-329-248-185-418 27-32 66-57 115-73 42-14 142-3 187 19"/><path d="M2256 1435c-34 12-60 27-92 57l-20 19-883 1-8 4-44 21a312 312 0 00-143 134l-27 51-2 546 4 512c1 19 3 34 6 45a104 104 0 00 7 18c2 5 7 13 12 17 4 4 13 10 18 11l17 4h40l16-3a65 65 0 00 19-12 71 71 0 00 18-34c3-10 6-26 7-43 6-68 5-208 5-498V1770l13-25a130 130 0 01 67-63c13-6 93-6 420-6l353 1c50 2 46 0 45 1l2 3a218 218 0 00 52 93 208 208 0 00 148 62 223 223 0 00 54-7 215 215 0 00 94-56 226 226 0 00 60-138c0-28-8-60-21-88-12-24-26-46-42-62s-39-28-63-40c-19-7-44-14-66-16-21-2-48 0-66 5zm1282 55a372 372 0 00-143 70c-40 32-76 78-100 126-26 53-158 345-262 575l-105 234-109 242-83 190-60 132-4 5-53-64a3050 3050 0 00-102-120 611 611 0 01-35-42l-3-4a757 757 0 00 232-213 710 710 0 00 95-268 884 884 0 00-8-305 730 730 0 00-75-197 396 396 0 00-50-72c-10-10-20-18-30-24a97 97 0 00-17-9 77 77 0 00-21-4 63 63 0 00-34 12 155 155 0 00-38 38 61 61 0 00-12 33c0 7 4 17 6 22l8 16c6 12 15 26 24 40a470 470 0 01 68 146 618 618 0 01 21 173 513 513 0 01-63 285 544 544 0 01-245 215c-18 7-36 17-47 27-7 6-14 14-18 21-4 8-8 20-9 28 0 9 0 20 3 28 2 8 7 17 10 25a310 310 0 00 38 49l57 68 119 142c42 50 88 109 105 130 19 27 38 48 56 59a92 92 0 00 17 8 80 80 0 00 20 3l21-3 18-9c4-2 12-7 20-17 6-7 13-18 22-34 15-30 42-90 96-210l283-627 84-189 100-222 64-144a760 760 0 01 74-145 150 150 0 01 68-51c23-10 52-14 87-14s64 6 85 17l27 14-7 13a230 230 0 00-22 60 211 211 0 00-3 60 214 214 0 00 40 105 310 310 0 00 41 40 210 210 0 00 50 28 207 207 0 00 60 12c19 1 42-1 63-6a211 211 0 00 154-167 190 190 0 00-21-120 239 239 0 00-107-98 220 220 0 00-82-14l-14-1-7-7a373 373 0 00-130-80 473 473 0 00-217-11zM1490 1913a80 80 0 00-10 13 85 85 0 00-7 20c-3 10-4 27-5 50-2 47-2 130-1 289l2 213a300 300 0 00 10 61l11 16c4 4 10 9 17 11l17 5c10 2 26 4 46 5 40 1 108 2 224 2 211 0 280-3 317-13a430 430 0 00 134-60 335 335 0 00 140-226 420 420 0 00-40-230c-12-25-30-50-50-70-40-38-96-70-163-91-40-12-86-15-326-18h-239c-20 0-35 2-45 5-6 1-14 4-18 7a70 70 0 00-14 11zM3558 2020c-10 13-28 44-37 68-8 21-26 64-40 94l-36 88-135 313a486 486 0 00-35 100c-2 14-2 30 0 40l9 20c3 5 9 11 13 15l15 10 18 5c10 2 26 4 47 5 41 2 113 2 239 3l237-1c22 0 38-2 49-4 13-2 25-8 33-12 8-6 19-16 24-25 6-9 10-23 10-34 1-19-6-43-17-67l-88-204-136-318a1520 1520 0 00-33-71c-10-17-20-30-27-38-8-5-19-11-27-13a89 89 0 00-30-2c-10 0-20 4-29 9-8 4-18 12-24 19zm438 25-17 23c-4 8-9 22-9 31 0 14 20 65 41 111l56 128 42 92 35 80 81 180c256 560 268 588 268 627 0 16 0 24-3 33-2 10-6 16-13 29-5 8-10 14-17 20a97 97 0 01-22 16 110 110 0 01-54 15 110 110 0 01-56-10c-20-7-34-17-47-34-10-10-50-92-88-184-24-55-44-100-60-130a270 270 0 00-42-65c-7-5-20-12-36-15-13-2-32-4-62-5l-371-1-340 2a420 420 0 00-123 10c-8 4-17 12-23 18L3120 3040c-10 17-22 42-36 74l-30 68-18 2c-35 4-68 14-93 30a242 242 0 00-66 74c-8 13-14 28-17 42a258 258 0 00 10 133c10 24 25 48 42 65a198 198 0 00 147 57 220 220 0 00 73-13 215 215 0 00 61-36 210 210 0 00 45-54 204 204 0 00 23-69 198 198 0 00-37-149l-14-20 20-45 18-41h744l47 109c76 176 90 202 137 248 29 29 60 50 95 62 33 12 74 16 120 14 42-2 80-8 110-20 30-13 58-34 83-60a280 280 0 00 58-85c11-28 15-62 15-104 0-73-4-85-40-164l-161-362L4250 2340l-100-222c-10-20-19-38-28-52a140 140 0 00-33-35c-7-4-17-9-24-10a76 76 0 00-28 0 85 85 0 00-42 23zm-2504 782c-4 4-10 10-12 16-3 4-5 11-6 17-2 9-4 23-5 41-2 36-3 97-4 204l-4 210c-2 30-3 32-10 44a142 142 0 01-53 56 150 150 0 01-117 5 123 123 0 01-60-53 79 79 0 01-13-35 198 198 0 00 113-146c6-30 5-65-3-95a208 208 0 00-19-45c-7-14-19-30-30-41a210 210 0 00-50-35 240 240 0 00-56-20 245 245 0 00-60-5c-20 1-42 6-60 12-18 7-37 20-52 32a266 266 0 00-70 102 180 180 0 00-12 60c0 16 4 36 10 53a246 246 0 00 62 94 193 193 0 00 56 35l3 14c6 43 27 90 54 127a330 330 0 00 108 92 375 375 0 00 220 17c37-11 78-36 110-66 31-30 60-70 77-109 14-34 17-72 20-258l4-176 94-1a2111 2111 0 01 120 0l95 119 141 176 60 75c45 60 86 109 122 144 36 36 72 63 103 77 45 20 65 24 139 24s93-4 138-26c25-13 52-32 70-50 9-9 18-20 24-30a104 104 0 00 9-16c2-6 4-16 4-22a71 71 0 00-3-18 83 83 0 00-7-15 103 103 0 00-44-39 90 90 0 00-32-7c-10 0-26 5-36 10s-22 13-30 20c-17 15-30 22-44 28a164 164 0 01-124-11c-26-15-50-38-82-80l-82-100-66-84a10617 10617 0 01-115-142l-113-141-45-55h-210l-152 1-40 3a109 109 0 00-32 10l-1 1-2 2zm-410 317a30 30 0 01 3-10 34 34 0 01 6-10 37 37 0 01 10-8c3-3 5-4 10-5a28 28 0 01 10-2 23 23 0 01 9 0l10 5 8 9 7 12 4 11v7a30 30 0 01-15 22c-3 3-6 4-10 6s-10 2-15 2l-13-2-11-5c-5-2-5-4-8-8-3-4-4-6-5-12v-12zm1995 208c3 0 2 0 8 6l6 10 2 10v10c0 4-1 7-3 11a38 38 0 01-6 10l-8 8a32 32 0 01-20 6l-6-1-10-5a34 34 0 01-15-12 30 30 0 01-5-14v-15c3-7 4-10 10-16l7-8c3-2 5-2 20-2a60 60 0 01 20 2zm541-1065 27 60 108 255 7 16h-10a4965 4965 0 01-273 0l71-168 70-163zm-1550-224c38 10 66 23 90 42 13 9 22 18 30 30a146 146 0 01 21 35c7 13 10 40 9 73s-3 60-10 74a148 148 0 01-43 62c-20 18-44 30-80 42-30 12-52 12-258 12h-194l-2-189v-187h190c134 0 235 2 248 6zm1840-312a7 7 0 00 2 0c3 0 6 0 20 7 6 2 8 3 12 7a20 20 0 01 6 9c2 4 2 6 2 10v14c0 5-3 8-6 13l-10 10a30 30 0 01-10 7 35 35 0 01-16 2l-5-2c-6-3-10-7-15-12a73 73 0 01-15-20c0-2 0-5 2-9l6-13 8-11c4-4 5-5 8-6l12-6zM2320 1598c3 1 4 2 12 10l8 11a30 30 0 01 3 12v12c0 5-3 7-5 10a30 30 0 01-7 10l-9 6a23 23 0 01-10 2l-13-1a30 30 0 01-15-7c-5-3-6-5-9-10-3-4-3-6-4-11v-14a33 33 0 01 3-12c2-5 4-7 7-10 4-4 6-5 11-7 6-2 9-3 16-3 9 0 10 0 12 2" paint-order="fill"/></svg>
