<svg xmlns="http://www.w3.org/2000/svg" width="512" height="512" preserveAspectRatio="xMidYMid meet" fill="#961911" xmlns:v="https://vecta.io/nano"><path d="M197.5 1.2c-.2.7-1.1 9.7-2.1 20l-1.7 18.7-11.1 3.8c-6.1 2.1-16.7 6.5-23.7 9.9l-12.6 6.1-14.6-11.8c-8-6.6-15-11.9-15.4-11.9s-19 18.2-41.2 40.4c-28.9 28.9-40.1 40.8-39.5 41.7.4.8 5.5 7.2 11.4 14.4 5.9 7.1 10.9 13.5 11.3 14.1.4.7-2 6.7-5.2 13.5-3.3 6.8-7.7 17.3-9.7 23.4l-3.8 11.2c-.1 0-7.3.8-16.1 1.7l-19.8 2.2-3.7.6.2 57.6.3 57.7 16.5 1.7 19.6 1.7c3.1.1 3.2.3 7 11.3 2.1 6.2 6.6 16.9 10 23.9l6.1 12.6-11.8 14.6c-6.6 8-11.9 15-11.9 15.4s18.2 19 40.4 41.2c28.9 28.9 40.8 40.1 41.7 39.5.8-.4 7.3-5.5 14.4-11.4l14.1-11.3c.7-.4 6.7 2 13.5 5.2 6.8 3.3 17.4 7.7 23.5 9.7l11.1 3.8 1.7 16.6c.9 9.1 2 18 2.3 19.7l.5 3.3h35.9H271v-30.5V451h31.8 31.7l3 5.7c8.6 16.6 28.1 26.5 46.1 23.5 19.6-3.2 34.4-18 37.6-37.6 3.9-23.8-13.1-46.7-37.6-50.8-18-3-37.5 6.9-46.1 23.5l-3 5.7h-31.7H271v-14.9-14.8l-17.2-.6c-18-.6-25.3-1.8-39.8-6.4-39.2-12.6-72.4-45.5-85.8-84.8-5.4-15.9-6.7-24.2-6.7-43.5s1.3-27.5 6.7-43.5c13-38.7 45.7-71.4 84.4-84.3 14.8-5 22.7-6.3 41.2-6.9l17.2-.6v-14.8V91h31.8 31.7l3 5.7c8.6 16.6 28.1 26.5 46.1 23.5 24.5-4.1 41.5-27 37.6-50.8-3.2-19.6-18-34.4-37.6-37.6-18-3-37.5 6.9-46.1 23.5l-3 5.7h-31.7H271V30.5 0h-36.5c-28.4 0-36.7.3-37 1.2zm192.2 52.6c15.1 7.8 17.8 29.2 5.1 41.1-8.6 8-25 8-33.6 0-14.4-13.5-9.1-36.8 9.8-43 4.2-1.4 14.2-.3 18.7 1.9zm-1 360c11.6 6 16.7 21.5 10.8 33.2-4.6 9.1-12.4 14-22.5 14-21.9 0-32.9-24.8-18.5-41.8 2.7-3.2 6.6-5.7 11.5-7.3 4.2-1.4 14.2-.3 18.7 1.9z"/><path d="M225.645 143.53c-3.398 1.13-6.088 2.709-9.242 5.666l-2.054 1.876-88.256.145-.772.373-4.372 2.114c-3.196 1.552-6.131 3.478-8.416 5.615-2.296 2.147-4.326 4.897-5.886 7.76l-2.714 5.167-.227 54.53.346 51.269c.149 1.814.375 3.357.659 4.441a10.43 10.43 0 0 0 .646 1.784c.272.55.792 1.284 1.201 1.683.464.454 1.305.973 1.831 1.176.521.201 1.267.344 1.697.382.791.07 1.517.015 2.015.015.487 0 1.194.054 1.97-.01.422-.035 1.155-.169 1.669-.361a6.49 6.49 0 0 0 1.826-1.139c.412-.391.941-1.115 1.217-1.657.238-.468.497-1.167.656-1.756.286-1.057.518-2.566.672-4.33.59-6.751.534-20.758.534-49.804v-51.341l1.242-2.5c.759-1.556 1.625-2.659 2.846-3.807 1.216-1.142 2.31-1.896 3.824-2.503 1.312-.61 9.295-.66 42.085-.66l35.235.19c4.96.154 4.642-.073 4.483.056.166.127.147.142.253.34.256 1.267 1.086 3.228 1.742 4.589.917 1.716 2.169 3.456 3.432 4.749 1.274 1.302 2.913 2.544 4.437 3.403s3.388 1.596 5.059 2.019 3.63.659 5.345.651a22.32 22.32 0 0 0 5.339-.701c1.666-.439 3.518-1.191 5.037-2.068 1.514-.874 3.139-2.133 4.397-3.45 1.249-1.306 2.477-3.06 3.374-4.786 1.493-3.003 2.472-6.17 2.561-9 .09-2.854-.732-6.017-2.085-8.891-1.162-2.409-2.541-4.54-4.173-6.112s-3.834-2.886-6.269-3.981c-1.883-.803-4.424-1.449-6.572-1.666-2.177-.221-4.806-.014-6.592.526zm128.164 5.444c-5.164 1.243-10.313 3.732-14.354 7.003-4.034 3.266-7.582 7.791-9.988 12.664-2.547 5.234-15.799 34.459-26.129 57.489l-10.534 23.354-10.869 24.172-8.32 19.001c-2.474 5.631-4.552 10.116-6.107 13.219l-.272.54c-1.499-1.726-3.362-3.953-5.365-6.408-4.473-5.5-8.886-10.77-10.155-12.067a61.12 61.12 0 0 1-3.515-4.14l-.289-.378c.692-.543 2.041-1.351 3.553-2.155 5.805-3.356 15.141-12.442 19.627-19.178 4.616-7.198 7.981-16.844 9.487-26.755 1.503-9.885 1.311-20.777-.732-30.552-1.429-6.736-4.379-14.171-7.52-19.685-1.592-2.796-3.412-5.398-5.078-7.175-.872-.93-1.955-1.87-2.879-2.45a9.72 9.72 0 0 0-1.751-.855 7.67 7.67 0 0 0-2.159-.379c-.649 0-1.6.254-2.065.457-.396.172-.921.473-1.278.711-.661.443-1.469 1.124-2.073 1.723s-1.293 1.406-1.742 2.071c-.241.357-.544.885-.717 1.283-.201.463-.446 1.384-.446 2.014 0 .706.322 1.704.552 2.228.198.452.501 1.049.813 1.619.607 1.105 1.469 2.516 2.363 3.858 3.295 4.972 5.424 9.483 6.882 14.652 1.464 5.189 2.105 10.617 2.093 17.352.121 12.518-1.519 19.614-6.323 28.444-2.201 4.113-5.767 8.234-10.231 12.163-4.474 3.937-9.338 7.201-14.284 9.309-1.827.799-3.599 1.783-4.75 2.796-.633.557-1.363 1.42-1.764 2.129-.421.744-.793 1.931-.866 2.785-.07.822.065 1.978.301 2.794.221.76.64 1.712 1.074 2.48.814 1.443 2.119 3.149 3.652 4.889.942 1.07 3.518 4.112 5.716 6.852l11.918 14.144c4.2 5.001 8.856 10.87 10.469 13.034 1.917 2.642 3.877 4.783 5.633 5.837a9.24 9.24 0 0 0 1.76.802c.57.179 1.435.318 2.025.32.6.002 1.477-.136 2.036-.314.54-.171 1.305-.561 1.785-.85.379-.255 1.21-.715 2.044-1.69.595-.696 1.298-1.838 2.118-3.457 1.542-3.045 4.2-8.96 9.658-21.053l28.269-62.58c.646-1.558 4.492-10.068 8.433-18.921l10.018-22.268 6.344-14.321c3.232-7.413 5.322-11.636 7.471-14.503 1.021-1.361 1.834-2.177 2.954-3.009s2.23-1.432 3.859-2.133c2.192-1.032 5.157-1.398 8.595-1.339s6.398.529 8.55 1.65c1.242.595 2.089 1.018 2.714 1.392-.165.338-.396.764-.716 1.336-1.007 1.881-1.811 4.043-2.203 5.95a21.12 21.12 0 0 0-.328 5.959c.174 1.86.675 3.91 1.342 5.599s1.689 3.502 2.781 4.94 2.562 2.912 4.013 4.008a21.05 21.05 0 0 0 5.054 2.785 20.74 20.74 0 0 0 5.861 1.227c1.943.107 4.27-.136 6.346-.643 2.87-.785 5.778-2.153 7.942-3.864s4.148-4.235 5.506-6.82c.937-1.908 1.68-4.095 1.998-6.031.32-1.955.308-4.216-.035-6.126s-1.112-4.046-2.098-5.815c-.974-1.747-2.413-3.615-3.986-5.162-2.028-1.995-4.373-3.663-6.72-4.62s-5.226-1.42-8.164-1.42c-.912 0-1.054-.017-1.369-.14-.279-.11-.279-.085-.759-.613-3.123-3.23-8.514-6.558-12.983-8.128-2.798-.876-6.942-1.503-10.787-1.694s-8.041.028-10.908.659zm-204.887 42.353c-.253.284-.66.768-.961 1.3a8.48 8.48 0 0 0-.738 1.895c-.273 1.091-.458 2.774-.555 5.152-.189 4.591-.17 12.95-.096 28.814l.273 21.278c.092 1.962.237 3.448.434 4.431.115.575.326 1.269.526 1.711.258.571.748 1.19 1.12 1.598.417.362 1.057.86 1.644 1.114.453.197 1.164.403 1.756.515 1.011.191 2.545.33 4.591.416 3.978.167 10.744.205 22.344.205 21.164 0 27.952-.282 31.709-1.218 4.989-1.316 9.705-3.434 13.44-6.045 3.761-2.629 7.096-6.148 9.382-9.867s3.911-8.264 4.539-12.779c.624-4.483.348-9.623-.773-14.619-.709-2.979-1.756-5.914-3.058-8.379-1.31-2.482-3.108-4.923-5.09-6.893-3.926-3.902-9.596-6.987-16.279-9.176-4.018-1.177-8.65-1.479-32.649-1.775-12.97-.11-19.967-.147-23.857.003-2.029.077-3.541.237-4.513.477-.614.151-1.384.46-1.833.724-.54.319-1.091.837-1.356 1.118zm206.838 10.665c-1.051 1.295-2.734 4.454-3.698 6.804-.793 2.133-2.563 6.409-3.881 9.36l-3.658 8.813c-1.175 2.889-4.055 9.575-13.487 31.348-1.9 4.346-3.109 7.657-3.516 10.029-.228 1.328-.227 2.898.042 3.983.149.602.494 1.42.808 1.925.318.514.9 1.154 1.321 1.543.35.283 1.001.732 1.55.971.451.196 1.152.408 1.754.528 1.033.207 2.593.36 4.713.461 4.119.195 11.247.269 23.848.342l23.768-.112c2.157-.076 3.757-.207 4.856-.394 1.325-.227 2.531-.745 3.273-1.18.875-.602 1.946-1.594 2.485-2.488.545-.903.961-2.357 1.006-3.43.081-1.886-.658-4.336-1.747-6.671l-8.804-20.456-13.589-31.746c-1.435-3.206-2.536-5.548-3.35-7.123-.864-1.674-1.914-3.082-2.668-3.789-.764-.53-1.879-1.11-2.726-1.34a8.88 8.88 0 0 0-3.009-.216c-.867.106-2.048.483-2.838.905-.764.407-1.803 1.273-2.453 1.932zm43.817 2.554c-.624.615-1.322 1.576-1.708 2.296-.411.766-.865 2.123-.865 3.066 0 1.385 1.987 6.498 4.103 11.118l5.627 12.748 4.128 9.231 3.576 8.038c.828 2.087 4.434 10.128 8.081 18.038 25.607 56.008 26.787 58.766 26.787 62.668 0 1.598-.069 2.398-.311 3.287-.238.876-.554 1.546-1.331 2.827-.5.873-.979 1.433-1.689 2.105a9.69 9.69 0 0 1-2.169 1.574c-1.731.952-3.304 1.379-5.358 1.486-2.059.107-3.728-.158-5.637-.934-1.917-.78-3.427-1.809-4.733-3.5-.972-.96-4.893-9.18-8.791-18.377-2.428-5.547-4.434-9.924-5.974-13.011-1.575-3.156-3.188-5.581-4.212-6.548-.668-.486-1.925-1.194-3.599-1.482-1.256-.216-3.222-.359-6.226-.444-5.894-.166-16.682-.166-37.112-.166l-34.016.193c-7.052.139-10.991.43-12.294 1.07-.721.355-1.652 1.123-2.232 1.794-.504.585-1.098 1.44-1.619 2.319-.986 1.662-2.178 4.112-3.617 7.35l-3.009 6.83-1.779.198c-3.472.4-6.754 1.369-9.261 3.036-2.479 1.648-4.709 4.272-6.658 7.384-.73 1.212-1.386 2.72-1.697 4.192-.293 1.387-.408 3.141-.412 5.055.047 2.863.552 5.825 1.442 8.187.905 2.402 2.451 4.837 4.168 6.576s4.153 3.323 6.546 4.239c2.357.903 5.341 1.437 8.199 1.437 2.427 0 5.095-.499 7.243-1.298a21.48 21.48 0 0 0 6.134-3.593 20.94 20.94 0 0 0 4.491-5.448 20.42 20.42 0 0 0 2.304-6.855c.373-2.689.322-5.377-.259-7.705-.576-2.309-1.843-4.818-3.405-7.209l-1.433-2.055 1.995-4.493 1.842-4.101h74.384l4.688 10.924c7.579 17.624 8.961 20.159 13.721 24.843 2.865 2.818 6.041 5.008 9.433 6.195 3.345 1.17 7.422 1.552 12.064 1.378 4.176-.171 7.879-.779 10.892-2.014 3.056-1.254 5.899-3.404 8.408-6.033 2.694-2.898 4.703-5.581 5.817-8.454 1.105-2.855 1.478-6.25 1.478-10.392 0-7.302-.4-8.474-3.945-16.433l-16.203-36.198-20.439-45.336-10.101-22.287c-.885-1.981-1.82-3.771-2.708-5.112-.941-1.421-2.215-2.817-3.359-3.573-.642-.425-1.652-.873-2.391-1.039a7.62 7.62 0 0 0-2.733-.031c-.736.148-1.737.558-2.384.951-.602.366-1.339.957-1.881 1.49zm-250.371 78.162c-.362.344-.968 1.032-1.251 1.587-.219.429-.46 1.125-.585 1.68-.208.919-.364 2.324-.467 4.167-.199 3.563-.293 9.695-.405 20.375l-.419 20.967c-.202 2.954-.299 3.203-.993 4.449-.749 1.394-1.479 2.373-2.438 3.363-.944.975-1.753 1.592-2.886 2.203s-2.104.955-3.459 1.217c-1.377.267-2.629.35-4.252.224-1.49-.075-2.638-.396-4.012-.985s-2.39-1.233-3.494-2.2-1.826-1.839-2.514-3.047c-.686-1.202-1.064-2.173-1.199-3.489l-.004-.029c1.445-.637 2.955-1.524 4.118-2.441 1.231-.972 2.475-2.264 3.393-3.489 1.828-2.438 3.21-5.693 3.769-8.672.558-2.974.458-6.512-.341-9.489a20.83 20.83 0 0 0-1.839-4.542c-.771-1.38-1.919-2.897-3.069-4.096-1.358-1.319-3.159-2.62-4.871-3.49a23.92 23.92 0 0 0-5.69-1.981 24.54 24.54 0 0 0-6.049-.467c-1.945.105-4.18.567-6.014 1.214-1.712.692-3.66 1.903-5.142 3.209-1.459 1.285-2.952 2.997-4.096 4.657s-2.21 3.662-2.893 5.485c-.693 1.848-1.173 4.081-1.173 5.922 0 1.676.418 3.721 1.021 5.401.595 1.657 1.535 3.496 2.544 5.018s2.342 3.115 3.651 4.328c1.326 1.229 3.097 2.416 4.656 3.141.469.202.713.316.904.425.091.33.155.686.257 1.397.661 4.294 2.696 9.012 5.441 12.693 2.739 3.672 6.718 7.066 10.746 9.154 2.649 1.255 6.857 2.195 10.722 2.488 3.855.292 8.243.029 11.292-.768 3.746-1.122 7.872-3.578 11.032-6.546 3.14-2.95 6.009-6.994 7.734-10.931 1.323-3.417 1.685-7.226 2.06-25.809l.309-17.645 9.427-.106c3.527-.073 6.783-.072 9.242-.01 1.111.028 1.989.067 2.659.117 1.313 1.544 5.151 6.218 9.617 11.8l14.083 17.666c2.267 2.733 4.902 6.12 5.922 7.481 4.593 6.032 8.673 10.85 12.247 14.405 3.642 3.622 7.231 6.261 10.288 7.709 4.532 1.963 6.563 2.374 13.869 2.374 7.488 0 9.309-.372 13.891-2.602 2.49-1.294 5.12-3.204 6.907-4.972.921-.912 1.848-2.02 2.438-2.953a10.39 10.39 0 0 0 .862-1.702c.216-.576.418-1.52.418-2.17a7.1 7.1 0 0 0-.285-1.808 8.25 8.25 0 0 0-.661-1.478c-.446-.765-1.235-1.689-1.903-2.275-.663-.581-1.665-1.238-2.486-1.607-.846-.381-2.201-.726-3.207-.726-1.071 0-2.642.511-3.655 1.015-.96.478-2.125 1.247-3.006 1.992-1.708 1.469-2.919 2.242-4.355 2.819-1.403.563-2.522.752-4.362.752-1.793 0-3.116-.124-4.5-.446-1.363-.318-2.345-.705-3.576-1.425-2.555-1.494-4.901-3.804-8.176-7.921l-8.187-10.032-6.587-8.425c-1.454-1.957-3.044-3.933-3.419-4.302-.085-.084-3.737-4.522-8.107-9.915l-11.315-14.135-4.532-5.526h-20.868l-15.27.195c-1.662.071-3.021.173-3.979.3a10.87 10.87 0 0 0-3.22 1.031l-.136.072-.167.159zm-40.99 31.679a3.04 3.04 0 0 1 .313-1.082 3.41 3.41 0 0 1 .62-.966 3.67 3.67 0 0 1 .867-.779c.386-.264.574-.36 1-.506a2.79 2.79 0 0 1 1.002-.195 2.26 2.26 0 0 1 .939.108c.419.119.562.155.944.453.378.23.541.416.874.831s.508.703.734 1.2c.222.488.301.741.372 1.184.066.413.108.413.018.637-.105.626-.235.842-.544 1.305-.294.441-.431.579-.864.891-.428.309-.648.416-1.179.584s-.817.213-1.382.221-.835-.028-1.35-.178-.693-.234-1.093-.517-.497-.379-.763-.787c-.283-.433-.392-.596-.474-1.209-.115-.5-.095-.714-.033-1.195zM307.7 335.201c.264.095.223.042.776.641.338.326.406.474.592.881.181.395.223.549.278.992s.049.646-.023 1.106-.141.691-.334 1.127a3.8 3.8 0 0 1-.608 1.006c-.291.364-.437.504-.798.762s-.498.33-.909.465c-.423.14-.571.165-1.047.165-.082 0-.147-.014-.614-.164-.496-.161-.755-.247-1.041-.464a3.41 3.41 0 0 1-1.436-1.233c-.367-.527-.449-.732-.549-1.357s-.085-.881.102-1.529c.195-.674.328-1.015.884-1.6.354-.43.545-.64.735-.807.025-.022.04-.037.049-.046.241-.097.467-.108 1.869-.108 1.351 0 1.699.03 2.073.164zm54.129-106.524l2.632 5.973 10.876 25.537.638 1.577-.978.031c-3.459.099-8.178.153-13.357.153-6.731 0-11.125-.042-13.943-.151l7.111-16.769 7.02-16.351zm-154.976-22.363c3.713.904 6.587 2.255 9.02 4.149 1.199.933 2.079 1.812 2.967 2.962a14.56 14.56 0 0 1 2.081 3.581c.646 1.321.887 4.08.878 7.336s-.253 6.01-.931 7.36c-1.114 2.768-2.386 4.545-4.375 6.245-2.024 1.732-4.353 2.972-7.92 4.176-3.131 1.144-5.27 1.189-25.897 1.186h-19.352l-.187-18.887-.124-18.754h19.068c13.395-.001 23.552.213 24.771.645zm184.009-31.182a.74.74 0 0 0 .106-.044c.005.001.013.001.027.001.314-.003.579.084 2.044.693.607.213.764.36 1.137.722a2.05 2.05 0 0 1 .602.871c.189.433.227.604.259 1.115.032.517.007.772-.13 1.303s-.25.8-.542 1.272-.463.675-.88 1.025c-.423.355-.617.471-1.143.664-.536.198-.815.252-1.455.255-.01-.004-.027-.01-.053-.018-.192-.059-.256-.088-.519-.23-.566-.308-.981-.62-1.547-1.163s-.884-.931-1.199-1.463c-.145-.244-.165-.286-.222-.454.007-.329.047-.534.183-.981.153-.505.293-.821.579-1.305s.479-.741.831-1.1c.339-.346.426-.451.744-.583.562-.311.897-.478 1.18-.581zm-158.859-15.374c.322.147.446.231 1.153.972.452.438.585.685.812 1.183a2.95 2.95 0 0 1 .318 1.176c.048.49.033.7-.073 1.184s-.186.686-.427 1.111a3.03 3.03 0 0 1-.707.9c-.342.319-.47.405-.879.59a2.3 2.3 0 0 1-1.018.258c-.504.038-.728.047-1.302-.141-.736-.167-1.011-.338-1.5-.699-.458-.338-.585-.479-.868-.937-.276-.447-.351-.645-.458-1.179s-.114-.788-.041-1.338a3.34 3.34 0 0 1 .388-1.275c.241-.484.36-.647.741-1.002.389-.364.538-.46 1.062-.663.561-.218.863-.276 1.611-.276.866 0 .891.001 1.187.137z" paint-order="fill"/></svg>